<svg viewBox="0 0 1600 900" xmlns="http://www.w3.org/2000/svg" style="width:100%;height:100%;background:#020306;">

  <defs>
    <filter id="grain" color-interpolation-filters="sRGB" x="0%" y="0%" width="100%" height="100%">
      <feTurbulence type="fractalNoise" baseFrequency="0.75" numOctaves="4" stitchTiles="stitch" result="noise">
        <animate attributeName="seed"
           values="0;37;74;11;48;85;22;59;96;33;70;7;44;81;18;55;92;29;66;3;40;77;14;51;88;25;62;99;36;73"
           dur="1s" calcMode="discrete" repeatCount="indefinite"/>
      </feTurbulence>
      <feColorMatrix type="saturate" values="0" in="noise" result="gray"/>
      <feColorMatrix type="matrix"
        values="2.5 0 0 0 -0.6
                2.5 0 0 0 -0.6
                2.5 0 0 0 -0.6
                0   0 0 1  0" in="gray"/>
    </filter>
  </defs>

  <style>.cb{fill:#020306}.ci{fill:#2a3245;stroke:#2a3245;stroke-width:24}.co{fill:none;stroke:#2a3245;stroke-width:24}.ap{fill:none;stroke:#2a3245;stroke-width:24;stroke-linecap:round;stroke-linejoin:round}.cd{fill:none;stroke:#080a12;stroke-width:12}.aw{transform-box:fill-box;transform-origin:center}@keyframes fk{0%,100%{opacity:1}0.12%{opacity:.05}0.24%{opacity:.85}0.36%{opacity:.05}0.48%,23.5%{opacity:1}23.62%{opacity:.05}23.74%{opacity:.85}23.86%{opacity:.05}23.98%,100%{opacity:1}}@keyframes cbk{0%,0.47%{fill:#020306}0.48%,23.5%{fill:#2a3245}23.98%,100%{fill:#020306}}@keyframes cik{0%,0.47%{fill:#2a3245;stroke:#2a3245}0.48%,23.5%{fill:#020306;stroke:#020306}23.98%,100%{fill:#2a3245;stroke:#2a3245}}@keyframes cok{0%,0.47%{stroke:#2a3245}0.48%,23.5%{stroke:#020306}23.98%,100%{stroke:#2a3245}}@keyframes apk{0%,0.47%{stroke:#2a3245}0.48%,23.5%{stroke:#020306}23.98%,100%{stroke:#2a3245}}@keyframes ak{0%,0.47%{transform:rotate(0deg)}0.78%,23.5%{transform:rotate(-45deg)}24.28%,100%{transform:rotate(0deg)}}.c1{animation:fk 48s 22.4s infinite both}.c1 .cb{animation:cbk 48s 22.4s infinite both}.c1 .ci{animation:cik 48s 22.4s infinite both}.c1 .co{animation:cok 48s 22.4s infinite both}.c2{animation:fk 48s 38.4s infinite both}.c2 .cb{animation:cbk 48s 38.4s infinite both}.c2 .ap{animation:apk 48s 38.4s infinite both}.c2 .aw{animation:ak 48s 38.4s infinite both}.c3{animation:fk 48s 3.2s infinite both}.c3 .cb{animation:cbk 48s 3.2s infinite both}.c3 .ci{animation:cik 48s 3.2s infinite both}.c3 .co{animation:cok 48s 3.2s infinite both}.c4{animation:fk 48s 32s infinite both}.c4 .cb{animation:cbk 48s 32s infinite both}.c4 .ap{animation:apk 48s 32s infinite both}.c4 .aw{animation:ak 48s 32s infinite both}.c5{animation:fk 48s 16s infinite both}.c5 .cb{animation:cbk 48s 16s infinite both}.c5 .ci{animation:cik 48s 16s infinite both}.c5 .co{animation:cok 48s 16s infinite both}.c6{animation:fk 48s 41.6s infinite both}.c6 .cb{animation:cbk 48s 41.6s infinite both}.c6 .ap{animation:apk 48s 41.6s infinite both}.c6 .aw{animation:ak 48s 41.6s infinite both}.c7{animation:fk 48s 9.6s infinite both}.c7 .cb{animation:cbk 48s 9.6s infinite both}.c7 .ci{animation:cik 48s 9.6s infinite both}.c7 .co{animation:cok 48s 9.6s infinite both}.c8{animation:fk 48s 44.8s infinite both}.c8 .cb{animation:cbk 48s 44.8s infinite both}.c8 .ap{animation:apk 48s 44.8s infinite both}.c8 .aw{animation:ak 48s 44.8s infinite both}.c9{animation:fk 48s 25.6s infinite both}.c9 .cb{animation:cbk 48s 25.6s infinite both}.c9 .ci{animation:cik 48s 25.6s infinite both}.c9 .co{animation:cok 48s 25.6s infinite both}.c10{animation:fk 48s 6.4s infinite both}.c10 .cb{animation:cbk 48s 6.4s infinite both}.c10 .ap{animation:apk 48s 6.4s infinite both}.c10 .aw{animation:ak 48s 6.4s infinite both}.c11{animation:fk 48s 35.2s infinite both}.c11 .cb{animation:cbk 48s 35.2s infinite both}.c11 .ci{animation:cik 48s 35.2s infinite both}.c11 .co{animation:cok 48s 35.2s infinite both}.c12{animation:fk 48s 0s infinite both}.c12 .cb{animation:cbk 48s 0s infinite both}.c12 .ap{animation:apk 48s 0s infinite both}.c12 .aw{animation:ak 48s 0s infinite both}.c13{animation:fk 48s 28.8s infinite both}.c13 .cb{animation:cbk 48s 28.8s infinite both}.c13 .ci{animation:cik 48s 28.8s infinite both}.c13 .co{animation:cok 48s 28.8s infinite both}.c14{animation:fk 48s 12.8s infinite both}.c14 .cb{animation:cbk 48s 12.8s infinite both}.c14 .ap{animation:apk 48s 12.8s infinite both}.c14 .aw{animation:ak 48s 12.8s infinite both}.c15{animation:fk 48s 19.2s infinite both}.c15 .cb{animation:cbk 48s 19.2s infinite both}.c15 .ci{animation:cik 48s 19.2s infinite both}.c15 .co{animation:cok 48s 19.2s infinite both}</style><g class="c1"><rect width="320" height="300" class="cb"/><circle cx="160" cy="150" r="110" class="co"/><circle cx="160" cy="150" r="55" class="ci"/><rect width="320" height="300" class="cd"/></g><g class="c2" transform="translate(320,0)"><rect width="320" height="300" class="cb"/><g class="aw"><path d="M 80 150 L 240 150 M 180 90 L 240 150 L 180 210" class="ap"/></g><rect width="320" height="300" class="cd"/></g><g class="c3" transform="translate(640,0)"><rect width="320" height="300" class="cb"/><circle cx="160" cy="150" r="110" class="co"/><circle cx="160" cy="150" r="55" class="ci"/><rect width="320" height="300" class="cd"/></g><g class="c4" transform="translate(960,0)"><rect width="320" height="300" class="cb"/><g class="aw"><path d="M 80 150 L 240 150 M 180 90 L 240 150 L 180 210" class="ap"/></g><rect width="320" height="300" class="cd"/></g><g class="c5" transform="translate(1280,0)"><rect width="320" height="300" class="cb"/><circle cx="160" cy="150" r="110" class="co"/><circle cx="160" cy="150" r="55" class="ci"/><rect width="320" height="300" class="cd"/></g><g class="c6" transform="translate(0,300)"><rect width="320" height="300" class="cb"/><g class="aw"><path d="M 80 150 L 240 150 M 180 90 L 240 150 L 180 210" class="ap"/></g><rect width="320" height="300" class="cd"/></g><g class="c7" transform="translate(320,300)"><rect width="320" height="300" class="cb"/><circle cx="160" cy="150" r="110" class="co"/><circle cx="160" cy="150" r="55" class="ci"/><rect width="320" height="300" class="cd"/></g><g class="c8" transform="translate(640,300)"><rect width="320" height="300" class="cb"/><g class="aw"><path d="M 80 150 L 240 150 M 180 90 L 240 150 L 180 210" class="ap"/></g><rect width="320" height="300" class="cd"/></g><g class="c9" transform="translate(960,300)"><rect width="320" height="300" class="cb"/><circle cx="160" cy="150" r="110" class="co"/><circle cx="160" cy="150" r="55" class="ci"/><rect width="320" height="300" class="cd"/></g><g class="c10" transform="translate(1280,300)"><rect width="320" height="300" class="cb"/><g class="aw"><path d="M 80 150 L 240 150 M 180 90 L 240 150 L 180 210" class="ap"/></g><rect width="320" height="300" class="cd"/></g><g class="c11" transform="translate(0,600)"><rect width="320" height="300" class="cb"/><circle cx="160" cy="150" r="110" class="co"/><circle cx="160" cy="150" r="55" class="ci"/><rect width="320" height="300" class="cd"/></g><g class="c12" transform="translate(320,600)"><rect width="320" height="300" class="cb"/><g class="aw"><path d="M 80 150 L 240 150 M 180 90 L 240 150 L 180 210" class="ap"/></g><rect width="320" height="300" class="cd"/></g><g class="c13" transform="translate(640,600)"><rect width="320" height="300" class="cb"/><circle cx="160" cy="150" r="110" class="co"/><circle cx="160" cy="150" r="55" class="ci"/><rect width="320" height="300" class="cd"/></g><g class="c14" transform="translate(960,600)"><rect width="320" height="300" class="cb"/><g class="aw"><path d="M 80 150 L 240 150 M 180 90 L 240 150 L 180 210" class="ap"/></g><rect width="320" height="300" class="cd"/></g><g class="c15" transform="translate(1280,600)"><rect width="320" height="300" class="cb"/><circle cx="160" cy="150" r="110" class="co"/><circle cx="160" cy="150" r="55" class="ci"/><rect width="320" height="300" class="cd"/></g><rect width="1600" height="900" fill="white" filter="url(#grain)" opacity="0.18" style="pointer-events:none;"/></svg>
